<svg xmlns="http://www.w3.org/2000/svg" width="441.343" height="27.51" viewBox="0 0 441.343 27.51"><g fill="#35773C"><path d="M4.296 20.376l-.5-2.695c-.117-.634-.297-1.522-.54-2.665L.865 4.072 0 .382C1.23.4 2.23.41 2.99.41 3.85.41 4.85.4 5.983.38c.264 1.593.474 2.76.63 3.502l1.232 5.903c.254 1.27.537 2.817.85 4.644l.482-2.052 1.74-6.768L12.113.38c1.338.02 2.47.03 3.398.03 1.006 0 2.134-.01 3.384-.03l.926 6.168 1.28 7.852.57-2.153c.107-.37.22-.747.337-1.128s.36-1.14.73-2.272l1.787-5.625L25.36.38c1.182.01 2.157.016 2.928.016.87 0 1.84-.005 2.913-.015l-5.68 17.022-.906 2.974c-1.465-.02-2.745-.03-3.838-.03-1.153 0-2.427.01-3.824.03l-.336-2.007-1.287-6.988c-.07-.42-.13-.852-.184-1.296s-.13-1.135-.227-2.073l-.514 2.27c-.127.51-.26 1.022-.396 1.54l-2.36 8.554c-1.475-.02-2.7-.03-3.678-.03-1.034 0-2.26.01-3.676.03zM34.146 9.683c.186-.967.303-1.633.352-2l.234-1.72c2.812-.616 5.23-.924 7.25-.924 1.154 0 2.21.128 3.166.387.958.26 1.705.676 2.242 1.252s.806 1.4.806 2.475c0 .547-.073 1.777-.22 3.69s-.257 4.425-.335 7.53c-.957-.02-1.91-.03-2.857-.03-.918 0-1.896.01-2.93.03.132-1.074.28-3.29.442-6.65-.37.176-.66.303-.87.38-.21.08-.578.196-1.104.353s-.937.288-1.234.396-.555.244-.774.41-.375.337-.468.513-.14.37-.14.586c0 .332.133.615.397.85s.685.352 1.26.352c.206 0 .426-.017.66-.05s.557-.12.967-.257c-.283.752-.62 1.85-1.01 3.296-.84.137-1.637.205-2.39.205-1.21 0-2.218-.17-3.024-.506s-1.426-.88-1.86-1.633-.652-1.503-.652-2.255c0-.46.082-.908.243-1.348s.412-.87.754-1.29c.34-.42.742-.778 1.2-1.076s1.087-.578 1.883-.84c.795-.265 1.803-.514 3.023-.748.508-.098.974-.203 1.398-.315s.73-.21.91-.293c.18-.083.326-.18.438-.293s.193-.228.242-.35.073-.252.073-.39a.96.96 0 0 0-.47-.856c-.31-.2-.77-.3-1.375-.3-1.68-.002-3.753.47-6.222 1.42zM50.786 20.376c.28-2.217.497-4.666.646-7.346.15-2.68.24-5.217.27-7.61 1.172.02 2.184.03 3.035.03.988 0 1.936-.01 2.846-.03l-.146 1.992c.322-.36.6-.647.835-.857s.525-.415.872-.615.715-.364 1.105-.49c.39-.128.817-.228 1.28-.3s.95-.11 1.46-.11c.702 0 1.388.075 2.057.226s1.228.366 1.677.645.825.626 1.128 1.04.503.863.6 1.34.147.973.147 1.48c0 .37-.04 1.172-.12 2.402l-.252 5.303a60.916 60.916 0 0 0-.074 2.9c-.986-.02-1.908-.03-2.766-.03-1.16 0-2.22.01-3.176.03.088-.89.182-2.21.28-3.962.1-1.753.148-2.986.148-3.7 0-1.103-.212-1.872-.638-2.306s-.96-.652-1.606-.652c-.567 0-1.102.186-1.605.557s-.89.91-1.165 1.62c-.274.707-.467 1.872-.58 3.493-.113 1.62-.188 3.27-.228 4.95-.976-.02-1.928-.028-2.854-.028-.976 0-2.035.01-3.177.03zM82.222 16.07c-.176.82-.327 1.62-.454 2.4l-.322 1.788c-.967.215-1.72.352-2.263.41s-1.067.088-1.575.088c-.83 0-1.567-.07-2.212-.212s-1.182-.4-1.61-.776-.724-.808-.88-1.296-.234-1.006-.234-1.553c0-.1.005-.272.015-.52.01-.25.043-.804.102-1.664l.32-5.068h-2.283a80.01 80.01 0 0 0 .132-2.666l.043-1.362h2.427c.058-.45.13-1.43.218-2.944l2.507-.513c.46-.088 1.437-.312 2.933-.674-.07 1.278-.118 2.655-.147 4.13h3.34c-.077 2.03-.116 3.374-.116 4.028h-3.37l-.177 3.662c-.02.547-.03.898-.03 1.055 0 .47.052.86.155 1.172s.284.537.542.674.544.206.857.206c.235 0 .48-.017.734-.05.253-.036.703-.14 1.348-.317zM92.77 22.192c1.26.43 2.367.73 3.324.9s1.792.257 2.505.257c.517 0 .985-.057 1.405-.17s.757-.25 1.01-.416.472-.376.653-.63.32-.537.417-.85.166-.674.205-1.084.073-.977.103-1.7c-.38.343-.71.616-.99.82s-.622.404-1.032.594-.856.337-1.34.44-.993.153-1.53.153c-1.24 0-2.358-.288-3.354-.864s-1.738-1.382-2.227-2.417-.733-2.153-.733-3.354c0-1.416.264-2.695.79-3.838s1.28-2.11 2.262-2.9c.98-.79 2.055-1.338 3.226-1.64s2.498-.455 3.98-.455c.85 0 1.813.05 2.89.153s2.56.325 4.443.667l-.347 4.834-.303 5.303c-.02.38-.03.693-.03.938l-.115 4.76a8.943 8.943 0 0 1-.22 1.73 4.63 4.63 0 0 1-1.48 2.52c-.41.352-.868.63-1.376.835a9.49 9.49 0 0 1-1.832.527c-.762.137-1.558.205-2.387.205-.468 0-1.044-.022-1.728-.066A36.583 36.583 0 0 1 95 26.97a47.113 47.113 0 0 1-1.984-.425l-.103-1.934c-.008-.372-.057-1.177-.144-2.418zm10.047-12.67a8.63 8.63 0 0 0-1.622-.177c-.877 0-1.634.17-2.272.506-.638.34-1.132.843-1.483 1.513s-.526 1.368-.526 2.09c0 .53.092 1.02.278 1.47.185.45.492.804.92 1.063.43.26.882.39 1.36.39.7 0 1.324-.255 1.87-.764s.92-1.204 1.125-2.084c.204-.88.32-2.216.35-4.007zM111.357 20.376l.454-6.504.147-3.735c.01-.674.015-1.362.015-2.065 0-.713-.01-1.597-.03-2.65 1.183.02 2.12.028 2.814.028.81 0 1.744-.01 2.798-.03l-.06 1.656c.38-.43.692-.75.937-.96.245-.21.523-.4.836-.57a4 4 0 0 1 .982-.38 4.518 4.518 0 0 1 1.07-.126c.352 0 .743.05 1.172.146a58.49 58.49 0 0 0 .073 2.637l.103 2.256a5.416 5.416 0 0 0-1.507-.235c-.586 0-1.092.085-1.516.256s-.8.43-1.127.777-.588.78-.783 1.296c-.195.518-.332 1.338-.41 2.46s-.117 2.408-.117 3.854c0 .508.02 1.138.06 1.89a156.87 156.87 0 0 0-5.91 0zM138.765 15.952c-.127.586-.37 2.002-.732 4.248-1.133.225-2.085.374-2.856.447s-1.553.11-2.344.11c-1.162 0-2.23-.08-3.208-.242-.977-.16-1.82-.446-2.527-.856s-1.3-.92-1.78-1.53-.842-1.334-1.09-2.173a9.054 9.054 0 0 1-.375-2.59c0-1.25.25-2.47.747-3.666s1.14-2.128 1.926-2.8a6.978 6.978 0 0 1 2.717-1.435 11.78 11.78 0 0 1 3.15-.425c1.112 0 2.174.13 3.185.388s1.868.71 2.57 1.355 1.205 1.372 1.502 2.183.447 1.685.447 2.622c0 .557-.063 1.177-.19 1.86l-10.27.015a6.67 6.67 0 0 0-.014.423c0 1.05.376 1.824 1.128 2.32.753.496 1.67.744 2.755.744.645 0 1.38-.076 2.205-.227s1.844-.41 3.055-.77zm-9.01-4.73h4.835a7.24 7.24 0 0 0 .015-.426c0-.508-.09-.942-.27-1.304s-.44-.625-.777-.79-.715-.25-1.135-.25c-.293 0-.576.046-.85.14s-.52.228-.74.41-.403.387-.55.622-.253.46-.32.68-.14.526-.207.917zM156.52 15.952c-.128.586-.372 2.002-.733 4.248-1.133.225-2.085.374-2.856.447s-1.552.11-2.343.11c-1.162 0-2.23-.08-3.208-.242-.978-.16-1.82-.446-2.528-.856s-1.3-.92-1.78-1.53-.842-1.334-1.09-2.173a9.054 9.054 0 0 1-.375-2.59c0-1.25.25-2.47.747-3.666s1.14-2.128 1.926-2.8a6.978 6.978 0 0 1 2.717-1.435 11.78 11.78 0 0 1 3.15-.425c1.112 0 2.174.13 3.185.388s1.868.71 2.57 1.355 1.205 1.372 1.502 2.183.447 1.685.447 2.622c0 .557-.062 1.177-.19 1.86l-10.268.015a6.67 6.67 0 0 0-.015.423c0 1.05.376 1.824 1.128 2.32.752.496 1.67.744 2.754.744.644 0 1.378-.076 2.204-.227s1.844-.41 3.055-.77zm-9.01-4.73h4.834a7.24 7.24 0 0 0 .015-.426c0-.508-.09-.942-.272-1.304s-.44-.625-.776-.79-.715-.25-1.135-.25c-.293 0-.576.046-.85.14s-.52.228-.74.41-.403.387-.55.622-.253.46-.32.68-.14.526-.207.917zM159.624 20.376c.28-2.217.497-4.666.646-7.346.15-2.68.24-5.217.27-7.61 1.172.02 2.184.03 3.035.03.988 0 1.936-.01 2.846-.03l-.145 1.992c.322-.36.6-.647.835-.857s.525-.415.872-.615.715-.364 1.105-.49c.39-.128.818-.228 1.282-.3s.95-.11 1.457-.11c.703 0 1.39.075 2.058.226s1.228.366 1.677.645.825.626 1.128 1.04.503.863.6 1.34.147.973.147 1.48c0 .37-.04 1.172-.12 2.402l-.25 5.303a60.916 60.916 0 0 0-.075 2.9c-.986-.02-1.908-.03-2.766-.03-1.16 0-2.22.01-3.176.03.088-.89.182-2.21.28-3.962.1-1.753.148-2.986.148-3.7 0-1.103-.212-1.872-.638-2.306s-.96-.652-1.606-.652c-.567 0-1.102.186-1.605.557s-.893.91-1.167 1.62c-.274.707-.467 1.872-.58 3.493-.113 1.62-.188 3.27-.228 4.95-.976-.02-1.928-.028-2.854-.028-.975 0-2.034.01-3.176.03zM188.833 22.192c1.26.43 2.368.73 3.325.9s1.792.257 2.505.257c.518 0 .986-.057 1.406-.17s.756-.25 1.01-.416.47-.376.652-.63.32-.537.417-.85.165-.674.204-1.084.073-.977.103-1.7c-.38.343-.71.616-.99.82s-.622.404-1.032.594-.857.337-1.34.44-.994.153-1.53.153c-1.24 0-2.36-.288-3.355-.864s-1.738-1.382-2.227-2.417-.732-2.153-.732-3.354c0-1.416.265-2.695.792-3.838s1.28-2.11 2.26-2.9c.98-.79 2.057-1.338 3.228-1.64s2.498-.455 3.98-.455c.85 0 1.813.05 2.89.153s2.56.325 4.443.667l-.346 4.834-.303 5.303c-.02.38-.03.693-.03.938l-.115 4.76a8.943 8.943 0 0 1-.22 1.73 4.63 4.63 0 0 1-1.48 2.52c-.41.352-.87.63-1.377.835a9.49 9.49 0 0 1-1.83.527c-.763.137-1.56.205-2.388.205-.47 0-1.045-.022-1.73-.066s-1.383-.11-2.1-.198-1.34-.18-1.86-.278-1.185-.24-1.985-.425l-.103-1.934c-.007-.372-.056-1.177-.144-2.418zm10.048-12.67a8.63 8.63 0 0 0-1.62-.177c-.878 0-1.635.17-2.273.506-.638.34-1.132.843-1.483 1.513s-.526 1.368-.526 2.09c0 .53.092 1.02.278 1.47.185.45.492.804.92 1.063.43.26.882.39 1.36.39.7 0 1.324-.255 1.87-.764s.92-1.204 1.125-2.084c.205-.88.322-2.216.35-4.007zM207.422 20.376l.454-6.504.146-3.735c.01-.674.015-1.362.015-2.065 0-.713-.01-1.597-.03-2.65 1.183.02 2.12.028 2.814.028.812 0 1.745-.01 2.8-.03l-.062 1.656c.38-.43.693-.75.938-.96.244-.21.522-.4.835-.57a4 4 0 0 1 .983-.38 4.518 4.518 0 0 1 1.07-.126c.352 0 .743.05 1.172.146a58.49 58.49 0 0 0 .073 2.637l.103 2.256a5.416 5.416 0 0 0-1.506-.235c-.585 0-1.09.085-1.515.256s-.8.43-1.128.777-.588.78-.783 1.296c-.196.518-.333 1.338-.41 2.46s-.118 2.408-.118 3.854c0 .508.02 1.138.06 1.89a156.87 156.87 0 0 0-5.91 0zM221.704 9.683c.186-.967.303-1.633.352-2l.234-1.72c2.812-.616 5.23-.924 7.25-.924 1.154 0 2.21.128 3.166.387.958.26 1.705.676 2.242 1.252s.806 1.4.806 2.475c0 .547-.073 1.777-.22 3.69s-.257 4.425-.335 7.53c-.96-.02-1.912-.03-2.86-.03-.917 0-1.895.01-2.93.03.133-1.074.28-3.29.443-6.65-.37.176-.66.303-.87.38-.21.08-.578.196-1.104.353s-.94.288-1.236.396-.555.244-.774.41-.375.337-.468.513-.14.37-.14.586c0 .332.133.615.397.85s.683.352 1.26.352c.204 0 .424-.017.658-.05s.557-.12.967-.257c-.283.752-.62 1.85-1.01 3.296-.84.137-1.637.205-2.39.205-1.21 0-2.218-.17-3.024-.506s-1.425-.88-1.86-1.633-.65-1.503-.65-2.255c0-.46.08-.908.24-1.348s.413-.87.755-1.29c.34-.42.742-.778 1.2-1.076s1.087-.578 1.883-.84c.795-.265 1.803-.514 3.023-.748.51-.098.975-.203 1.4-.315s.727-.21.907-.293c.18-.083.327-.18.44-.293s.192-.228.24-.35.074-.252.074-.39a.96.96 0 0 0-.468-.856c-.312-.2-.77-.3-1.376-.3-1.678-.002-3.753.47-6.222 1.42zM238.374 20.098c-.04-.43-.078-.88-.117-1.355s-.103-1.125-.19-1.956l-.117-1.055c.945.37 1.758.647 2.44.828s1.31.27 1.885.27c.478 0 .865-.043 1.162-.13.297-.09.514-.216.65-.382s.205-.337.205-.513c0-.156-.05-.31-.153-.46-.104-.152-.335-.36-.695-.624a79.424 79.424 0 0 1-2.11-1.596c-.61-.48-1.067-.903-1.375-1.274-.307-.37-.54-.77-.7-1.2s-.242-.875-.242-1.334c0-.81.232-1.567.696-2.27s1.147-1.214 2.05-1.532 2.005-.476 3.304-.476c1.357 0 3.09.176 5.2.527l.234 4.102c-1.182-.47-2.32-.703-3.413-.703-.772 0-1.332.08-1.678.238s-.52.4-.52.73c0 .106.02.21.06.307s.11.2.21.307.23.217.382.33.52.374 1.106.784 1.045.748 1.377 1.012c.547.43.964.828 1.252 1.194s.507.757.658 1.172.227.852.227 1.31c0 .694-.168 1.332-.505 1.913s-.845 1.068-1.523 1.46-1.414.66-2.205.812-1.606.227-2.446.227c-.566 0-1.277-.05-2.13-.147s-1.85-.27-2.982-.515zM252.86 20.098c-.038-.43-.077-.88-.116-1.355s-.103-1.125-.19-1.956l-.117-1.055c.945.37 1.758.647 2.44.828s1.31.27 1.885.27c.478 0 .865-.043 1.162-.13.297-.09.514-.216.65-.382s.205-.337.205-.513c0-.156-.052-.31-.154-.46-.103-.152-.334-.36-.694-.624a79.424 79.424 0 0 1-2.11-1.596c-.61-.48-1.067-.903-1.375-1.274-.307-.37-.54-.77-.7-1.2s-.242-.875-.242-1.334c0-.81.232-1.567.696-2.27s1.148-1.214 2.052-1.532 2.004-.476 3.303-.476c1.357 0 3.09.176 5.2.527l.234 4.102c-1.183-.47-2.32-.703-3.414-.703-.77 0-1.33.08-1.677.238s-.52.4-.52.73c0 .106.02.21.058.307s.11.2.212.307.23.217.38.33.52.374 1.107.784 1.045.748 1.377 1.012c.547.43.964.828 1.252 1.194s.508.757.66 1.172.226.852.226 1.31c0 .694-.168 1.332-.505 1.913s-.845 1.068-1.523 1.46-1.414.66-2.205.812-1.607.227-2.447.227c-.566 0-1.277-.05-2.13-.147s-1.85-.27-2.982-.515zM285.864 16.07c-.176.82-.327 1.62-.454 2.4l-.322 1.788c-.967.215-1.72.352-2.263.41s-1.067.088-1.575.088c-.83 0-1.567-.07-2.212-.212s-1.182-.4-1.61-.776-.724-.808-.88-1.296-.234-1.006-.234-1.553c0-.1.005-.272.015-.52.008-.25.042-.804.1-1.664l.32-5.068h-2.28a80.01 80.01 0 0 0 .13-2.666l.045-1.362h2.427c.058-.45.13-1.43.218-2.944l2.507-.513c.46-.088 1.437-.312 2.933-.674-.07 1.278-.118 2.655-.147 4.13h3.34c-.078 2.03-.117 3.374-.117 4.028h-3.37l-.177 3.662c-.02.547-.03.898-.03 1.055 0 .47.05.86.154 1.172s.284.537.542.674.544.206.857.206c.234 0 .48-.017.733-.05.254-.036.703-.14 1.348-.317zM296.455 5.04c1.21 0 2.375.185 3.494.556s2.062.906 2.833 1.604 1.34 1.514 1.707 2.446.55 1.936.55 3.01c0 1.045-.165 2.04-.492 2.98s-.88 1.827-1.663 2.652-1.775 1.443-2.98 1.853-2.484.616-3.832.616c-1.24 0-2.432-.18-3.574-.542s-2.098-.89-2.865-1.582-1.343-1.523-1.73-2.49-.578-1.982-.578-3.047.188-2.08.564-3.047.973-1.836 1.788-2.607 1.824-1.364 3.025-1.78 2.453-.62 3.752-.62zm-.102 4.306c-.625 0-1.182.16-1.67.483s-.857.792-1.106 1.413-.374 1.296-.374 2.03c0 1.073.27 1.896.806 2.467s1.21.857 2.02.857c.615 0 1.167-.164 1.655-.49s.857-.812 1.106-1.45.375-1.327.375-2.06c0-.604-.098-1.15-.293-1.64s-.515-.88-.96-1.172-.964-.44-1.56-.44zM307.25 20.376l.41-7.06.234-5.523.03-2.373c1.074.02 2.02.03 2.842.03.928 0 1.832-.01 2.71-.03l-.102 1.948c.303-.39.56-.69.77-.9s.466-.41.77-.602.614-.342.937-.454.685-.203 1.084-.27c.4-.07.82-.104 1.26-.104.498 0 .957.042 1.377.125s.782.188 1.085.315.566.273.79.44.423.353.595.563c.17.21.368.516.593.917.43-.625.884-1.1 1.362-1.42s1.022-.56 1.633-.71 1.238-.228 1.883-.228c.85 0 1.65.12 2.403.365s1.37.667 1.854 1.267c.482.6.725 1.38.725 2.336 0 .45-.032 1.128-.097 2.036s-.153 2.468-.267 4.68-.175 3.762-.186 4.65c-.897-.02-1.766-.028-2.604-.028-1.024 0-2.097.01-3.22.03.1-1.24.2-2.796.304-4.667s.155-3.168.155-3.89c0-.633-.073-1.106-.22-1.417-.147-.312-.336-.524-.566-.638-.228-.114-.48-.17-.755-.17-.293 0-.548.053-.764.162-.233.118-.44.3-.615.546-.235.325-.426.733-.572 1.225-.118.384-.21.97-.28 1.757a60.21 60.21 0 0 0-.16 3.164l-.117 3.925a148.318 148.318 0 0 0-5.854 0c.09-.87.193-2.33.312-4.38.12-2.05.18-3.423.18-4.116 0-.587-.06-1.026-.177-1.32s-.28-.526-.49-.702-.49-.264-.843-.264c-.38 0-.714.112-.996.337-.284.226-.525.548-.726.968s-.342 1-.425 1.736-.16 1.863-.228 3.376-.113 2.97-.133 4.365c-1.183-.02-2.14-.03-2.874-.03-.813.002-1.82.01-3.022.03zM343.887 5.04c1.21 0 2.375.185 3.493.556s2.063.906 2.835 1.604 1.34 1.514 1.706 2.446c.368.933.55 1.936.55 3.01 0 1.045-.163 2.04-.49 2.98s-.88 1.827-1.662 2.652-1.775 1.443-2.98 1.853c-1.207.41-2.483.616-3.83.616-1.24 0-2.433-.18-3.575-.542s-2.098-.89-2.864-1.582-1.344-1.523-1.73-2.49-.578-1.982-.578-3.047.188-2.08.564-3.047c.375-.967.97-1.836 1.787-2.607.814-.77 1.823-1.364 3.024-1.78s2.45-.62 3.75-.62zm-.103 4.306c-.625 0-1.182.16-1.67.483s-.857.792-1.105 1.413a5.374 5.374 0 0 0-.375 2.03c0 1.073.27 1.896.806 2.467s1.212.857 2.022.857c.615 0 1.167-.164 1.655-.49s.856-.812 1.106-1.45c.248-.64.373-1.327.373-2.06 0-.604-.098-1.15-.293-1.64s-.516-.88-.96-1.172c-.444-.293-.963-.44-1.56-.44zM354.624 20.376l.453-6.504.146-3.735c.01-.674.015-1.362.015-2.065 0-.713-.01-1.597-.03-2.65 1.183.02 2.12.028 2.814.028.81 0 1.743-.01 2.798-.03l-.062 1.656c.38-.43.694-.75.938-.96s.522-.4.835-.57c.314-.17.642-.298.983-.38s.698-.126 1.07-.126c.352 0 .742.05 1.172.146a58.49 58.49 0 0 0 .073 2.637l.103 2.256a5.417 5.417 0 0 0-1.507-.235c-.585 0-1.09.085-1.515.256-.424.172-.8.43-1.127.777s-.587.78-.782 1.296-.332 1.338-.41 2.46a56.932 56.932 0 0 0-.116 3.854c0 .508.02 1.138.06 1.89a156.852 156.852 0 0 0-5.907 0zM367.515 20.376l.453-6.504.146-3.735c.01-.674.015-1.362.015-2.065 0-.713-.01-1.597-.03-2.65 1.182.02 2.12.028 2.813.028.81 0 1.743-.01 2.798-.03l-.06 1.656c.38-.43.693-.75.937-.96s.522-.4.835-.57c.313-.17.64-.298.982-.38s.698-.126 1.07-.126c.352 0 .742.05 1.172.146a58.49 58.49 0 0 0 .073 2.637l.102 2.256a5.417 5.417 0 0 0-1.508-.235c-.585 0-1.09.085-1.515.256-.425.172-.8.43-1.128.777s-.588.78-.783 1.296-.333 1.338-.41 2.46a56.932 56.932 0 0 0-.117 3.854c0 .508.02 1.138.06 1.89a156.78 156.78 0 0 0-5.907 0zM389.136 5.04c1.21 0 2.375.185 3.493.556s2.062.906 2.834 1.604 1.34 1.514 1.706 2.446c.367.933.55 1.936.55 3.01 0 1.045-.164 2.04-.49 2.98s-.882 1.827-1.663 2.652-1.775 1.443-2.98 1.853c-1.207.41-2.483.616-3.83.616-1.24 0-2.433-.18-3.575-.542s-2.098-.89-2.864-1.582-1.343-1.523-1.73-2.49-.577-1.982-.577-3.047.19-2.08.565-3.047c.375-.967.97-1.836 1.787-2.607.814-.77 1.823-1.364 3.024-1.78s2.45-.62 3.75-.62zm-.103 4.306c-.625 0-1.182.16-1.67.483s-.857.792-1.105 1.413a5.374 5.374 0 0 0-.374 2.03c0 1.073.27 1.896.806 2.467s1.21.857 2.02.857c.616 0 1.168-.164 1.656-.49s.856-.812 1.106-1.45c.248-.64.373-1.327.373-2.06 0-.604-.098-1.15-.293-1.64s-.516-.88-.96-1.172c-.444-.293-.963-.44-1.56-.44zM403.818 20.376c-2.16-6.875-3.812-11.86-4.956-14.956.958.02 1.92.03 2.89.03.908 0 1.772-.01 2.594-.03l2.082 7.676.353 1.51.965-3.02 2.104-6.166a137.496 137.496 0 0 0 5.653 0l2.028 8.203.19.98.235-.73c.06-.187.205-.616.44-1.29l2.487-7.163a127.556 127.556 0 0 0 5.444 0l-5.386 12.642-.937 2.314c-1.017-.02-1.876-.03-2.58-.03-.77 0-1.77.01-3.003.03l-1.038-4.233c-.195-.81-.536-2.354-1.024-4.63-1.446 4.19-2.5 7.145-3.166 8.863-1.025-.02-1.855-.03-2.49-.03-.73 0-1.692.01-2.884.03zM430.137 14.062c.05-.82.093-1.406.132-1.758s.092-.657.16-.916.154-.488.256-.688c.104-.2.25-.425.44-.674.19-.25.432-.53.725-.842s.7-.732 1.217-1.26l.483-.498a4.438 4.438 0 0 0 .747-.915c.07-.12.117-.233.146-.336s.044-.208.044-.315c0-.5-.27-.875-.806-1.13s-1.298-.38-2.284-.38c-1.377 0-2.97.293-4.775.88l.455-2.286c.05-.264.107-.588.176-.974s.147-.886.235-1.5c2.15-.314 4.117-.47 5.904-.47 1.18 0 2.252.09 3.214.27s1.803.492 2.52.93c.72.44 1.268.963 1.648 1.568s.57 1.255.57 1.948a4.936 4.936 0 0 1-.337 1.758c-.106.273-.266.58-.476.916s-.457.676-.74 1.018-.516.603-.696.784-.522.51-1.025.99-.887.853-1.15 1.127-.48.53-.645.775-.296.505-.388.784c-.094.277-.18.68-.257 1.207a91.66 91.66 0 0 0-2.666-.044c-.772 0-1.714.01-2.827.03zm-.674 6.314l.146-1.758.19-2.373c.01-.107.023-.37.043-.79 1.24.02 2.256.028 3.047.028.85 0 1.846-.01 2.988-.03-.098 1.114-.16 2.062-.19 2.843s-.063 1.475-.103 2.08c-1.318-.02-2.305-.03-2.96-.03-.69 0-1.746.01-3.162.03z"/></g></svg>