<svg xmlns="http://www.w3.org/2000/svg" width="161.473" height="22.008" viewBox="0 0 161.473 22.008"><path d="M14.156 12.398c-.094.46-.207 1.1-.34 1.922s-.223 1.458-.27 1.91c-1.672.25-3.164.375-4.477.375-1.267 0-2.444-.158-3.534-.475s-2.09-.836-3-1.56S.976 13 .586 12.024 0 9.953 0 8.743c0-1.415.264-2.687.79-3.815s1.286-2.07 2.274-2.824S5.136.81 6.316.487 8.716 0 9.973 0c1.156 0 2.586.148 4.29.445l.022.984c.016.43.04.9.07 1.417l.082 1.336c-.914-.22-1.654-.367-2.22-.445s-1.093-.117-1.577-.117c-1.055 0-2.004.212-2.848.634S6.284 5.29 5.8 6.094s-.726 1.695-.726 2.672c0 .89.203 1.654.61 2.29s.954 1.13 1.645 1.478 1.544.52 2.56.52c.555 0 1.158-.044 1.81-.134s1.472-.264 2.456-.522zM17.355 7.746c.148-.773.242-1.307.28-1.6s.103-.752.19-1.377c2.25-.493 4.183-.74 5.8-.74.922 0 1.766.105 2.532.312s1.363.54 1.793 1.002c.43.46.645 1.12.645 1.98 0 .438-.06 1.422-.175 2.953-.117 1.53-.207 3.54-.27 6.023a109.44 109.44 0 0 0-2.285-.023c-.735 0-1.517.008-2.345.023.106-.86.225-2.633.354-5.32-.296.14-.528.242-.696.305s-.462.156-.882.28c-.42.126-.75.23-.988.317a2.35 2.35 0 0 0-.62.328 1.3 1.3 0 0 0-.374.41.993.993 0 0 0-.11.47c0 .265.104.49.315.68s.546.28 1.007.28c.164 0 .34-.014.527-.04s.445-.097.773-.206c-.227.602-.496 1.48-.81 2.637-.67.11-1.308.165-1.91.165-.968 0-1.774-.135-2.42-.404s-1.14-.704-1.487-1.306-.52-1.203-.52-1.805c0-.368.063-.728.192-1.08s.33-.694.603-1.03.594-.623.96-.86c.367-.24.87-.464 1.505-.675.637-.21 1.443-.41 2.42-.598.405-.078.778-.162 1.118-.252.34-.09.582-.168.726-.234s.262-.144.352-.233a.864.864 0 0 0 .193-.28.83.83 0 0 0 .058-.312c0-.297-.125-.525-.375-.686s-.617-.24-1.1-.24c-1.343 0-3.002.378-4.978 1.136zM30.762 16.3l.21-2.52.453-8.76.128-4.714c1.087.016 1.905.023 2.452.023.712 0 1.498-.01 2.358-.024l-.268 3.598-.43 8.86-.094 3.538c-.836-.008-1.59-.012-2.264-.012l-2.544.01zM38.19 16.3l.21-2.52.454-8.76.128-4.714c1.087.016 1.905.023 2.452.023.712 0 1.498-.01 2.358-.024l-.268 3.598-.43 8.86L43 16.3c-.837-.008-1.592-.012-2.265-.012l-2.544.01zM64.76 16.3a109.677 109.677 0 0 0-4.444 0l-.012-1.604c-.28.352-.52.615-.715.79-.196.177-.41.33-.64.464s-.487.248-.772.346-.613.174-.984.23-.748.08-1.13.08c-.618 0-1.202-.07-1.752-.216s-1.037-.39-1.455-.734c-.418-.344-.703-.734-.855-1.172s-.23-.945-.23-1.523c0-.14.013-.358.036-.655l.188-2.66c.054-.977.105-2.06.152-3.246.03-.728.047-1.415.047-2.063a126.627 126.627 0 0 0 4.746 0l-.364 4.465c-.055.68-.084 1.143-.088 1.39s-.007.41-.007.497c0 .82.167 1.374.5 1.663.333.29.73.434 1.192.434.188 0 .376-.027.564-.082s.367-.133.54-.234c.148-.093.286-.21.41-.35.134-.15.252-.33.354-.54.125-.258.22-.535.282-.832.086-.414.152-.938.2-1.57.03-.46.072-1.258.126-2.39l.09-2.45c1.008.016 1.835.023 2.483.023.726 0 1.455-.007 2.19-.022-.18 1.984-.32 3.87-.42 5.66s-.18 3.89-.234 6.303zM67.312 16.078l-.094-1.084c-.032-.38-.082-.9-.152-1.564l-.094-.844a18.16 18.16 0 0 0 1.953.662 5.897 5.897 0 0 0 1.508.217c.382 0 .69-.035.93-.105s.41-.172.52-.305a.644.644 0 0 0 .164-.41.652.652 0 0 0-.123-.37c-.082-.12-.267-.286-.555-.497-.64-.47-1.203-.895-1.69-1.277-.486-.382-.853-.722-1.098-1.02-.246-.296-.433-.616-.56-.96s-.194-.7-.194-1.066c0-.648.186-1.254.557-1.816s.918-.97 1.64-1.225 1.605-.38 2.644-.38c1.085 0 2.472.14 4.16.42l.187 3.282c-.945-.375-1.855-.562-2.73-.562-.617 0-1.064.063-1.342.19s-.416.32-.416.583c0 .086.015.168.046.246s.088.16.17.246.184.174.305.264.415.298.884.626.836.598 1.102.81c.438.343.77.66 1.002.954s.406.605.527.938.182.682.182 1.05c0 .554-.135 1.063-.404 1.528s-.676.854-1.22 1.166-1.13.53-1.763.65-1.285.182-1.957.182c-.453 0-1.02-.04-1.705-.117s-1.48-.217-2.386-.412zM93.715 12.855c-.14.656-.262 1.297-.363 1.922l-.258 1.43c-.773.172-1.377.28-1.81.328s-.855.07-1.26.07c-.665 0-1.255-.057-1.77-.17s-.946-.32-1.29-.62-.578-.647-.703-1.038-.187-.805-.187-1.242c0-.078.004-.217.012-.416.007-.2.035-.644.082-1.33l.256-4.056h-1.826c.04-.54.074-1.25.105-2.133l.035-1.09h1.94c.048-.358.106-1.144.176-2.354l2.006-.41c.366-.07 1.148-.25 2.345-.54a99.54 99.54 0 0 0-.118 3.306h2.672c-.063 1.625-.095 2.7-.095 3.223H90.97l-.142 2.93c-.016.438-.023.72-.023.844 0 .374.04.687.123.937s.227.43.434.54c.208.108.436.163.686.163.188 0 .383-.014.586-.04s.565-.114 1.08-.255zM102.188 4.03c.97 0 1.9.15 2.795.446s1.65.725 2.268 1.283 1.073 1.21 1.366 1.956.44 1.55.44 2.408c0 .836-.132 1.63-.394 2.385s-.705 1.46-1.33 2.12-1.42 1.154-2.385 1.482-1.986.492-3.064.492c-.992 0-1.945-.145-2.86-.434s-1.677-.71-2.29-1.266-1.074-1.22-1.383-1.992-.463-1.586-.463-2.438.15-1.664.45-2.438.778-1.47 1.43-2.086 1.46-1.092 2.42-1.424 1.96-.495 3-.495zm-.083 3.447c-.5 0-.945.13-1.336.387s-.687.635-.886 1.13-.3 1.038-.3 1.624c0 .86.216 1.518.646 1.975s.97.686 1.617.686c.492 0 .934-.132 1.324-.394s.687-.648.886-1.16.3-1.06.3-1.646c0-.484-.08-.922-.235-1.312s-.41-.703-.767-.938-.77-.353-1.248-.353zM123.986 16.3c-.836-.015-1.532-.022-2.087-.022-.626 0-1.384.008-2.275.023l.067-1.487c-.305.297-.57.537-.796.72s-.518.362-.873.534-.738.305-1.148.398c-.41.094-.833.14-1.27.14a5.39 5.39 0 0 1-2.104-.41 4.672 4.672 0 0 1-1.668-1.165c-.46-.504-.804-1.102-1.03-1.793s-.34-1.408-.34-2.15c0-1.055.206-2.086.62-3.094.415-1.008.957-1.8 1.625-2.38s1.423-.985 2.263-1.224a9.98 9.98 0 0 1 2.727-.358c.65 0 1.407.06 2.275.176.062-.93.104-2.23.127-3.902a128.056 128.056 0 0 0 4.74 0c-.226 2.32-.425 5.15-.596 8.495-.172 3.343-.258 5.843-.258 7.5zm-4.175-9.046a5.322 5.322 0 0 0-1.173-.14c-.76 0-1.405.145-1.938.438-.533.293-.942.75-1.228 1.37-.286.622-.43 1.233-.43 1.835 0 .453.08.86.242 1.225s.407.65.74.86c.333.212.703.317 1.11.317.43 0 .824-.122 1.18-.364s.646-.598.87-1.066.375-1.025.457-1.67.14-1.58.17-2.806zM127.723 7.746c.148-.773.242-1.307.28-1.6s.103-.752.19-1.377c2.25-.493 4.183-.74 5.8-.74.922 0 1.766.105 2.532.312s1.363.54 1.793 1.002c.43.46.645 1.12.645 1.98 0 .438-.06 1.422-.175 2.953-.117 1.53-.207 3.54-.27 6.023a109.44 109.44 0 0 0-2.285-.023c-.735 0-1.517.008-2.345.023.106-.86.225-2.633.354-5.32-.296.14-.528.242-.696.305s-.462.156-.882.28c-.42.126-.75.23-.988.317a2.35 2.35 0 0 0-.62.328 1.3 1.3 0 0 0-.374.41.993.993 0 0 0-.11.47c0 .265.104.49.315.68s.547.28 1.008.28c.164 0 .34-.014.527-.04s.445-.097.773-.206c-.227.602-.496 1.48-.81 2.637-.67.11-1.308.165-1.91.165-.968 0-1.774-.135-2.42-.404s-1.14-.704-1.487-1.306-.52-1.203-.52-1.805c0-.368.063-.728.192-1.08s.33-.694.603-1.03.594-.623.96-.86c.367-.24.87-.464 1.505-.675.637-.21 1.443-.41 2.42-.598.405-.078.778-.162 1.118-.252.34-.09.582-.168.726-.234s.262-.144.352-.233a.864.864 0 0 0 .193-.28.83.83 0 0 0 .06-.312c0-.297-.126-.525-.376-.686s-.616-.24-1.1-.24c-1.343 0-3.002.378-4.977 1.136zM140.18 21.656c-.242-1.867-.406-3.027-.492-3.48.493.234.928.395 1.308.48.38.086.706.13.98.13.29 0 .56-.04.814-.118.254-.078.456-.174.604-.287.148-.112.31-.286.486-.52s.307-.436.393-.604a3.94 3.94 0 0 0 .258-.72l-2.205-6.67-1.888-5.53c1.165.016 1.982.023 2.45.023.548 0 1.295-.01 2.24-.024.15.602.425 1.64.828 3.117.402 1.477.694 2.633.874 3.47.1.46.198 1.046.292 1.757l.246-.938c.078-.25.167-.535.27-.855s.23-.703.385-1.148l.76-2.134 1.266-3.27c.975.016 1.712.023 2.212.023.437 0 1.218-.01 2.342-.024l-2.26 5.11-4.087 9.48c-.266.53-.52.952-.762 1.265a4.73 4.73 0 0 1-.74.74c-.25.194-.52.358-.808.49-.39.18-.82.32-1.29.423-.516.11-1.04.164-1.57.164-.244 0-.564-.018-.962-.053-.4-.035-.72-.07-.968-.105-.244-.036-.57-.1-.977-.194zM155.824 16.3c.062-.726.105-1.282.13-1.67s.06-1.188.116-2.407c.984.016 1.824.023 2.52.023.586 0 1.367-.008 2.344-.023-.11 1.758-.176 3.117-.2 4.078-1.187-.015-1.98-.022-2.378-.022-.586 0-1.43.007-2.532.023zm.55-5.976c.118-2.75.212-6.09.282-10.02.992.016 1.816.023 2.473.023.522 0 1.304-.008 2.343-.023-.156 1.438-.418 4.777-.785 10.02a99.006 99.006 0 0 0-4.313 0z"/></svg>